<svg width="32" height="32" viewBox="0 0 32 32" fill="none" xmlns="http://www.w3.org/2000/svg">
<g clip-path="url(#clip0_148_121)">
<rect width="32" height="32" rx="6" fill="#FED731"/>
<path d="M4.68 25V8.2H7.296C8.176 8.2 9.072 8.272 9.984 8.416C10.912 8.544 11.8 8.784 12.648 9.136C13.496 9.472 14.256 9.944 14.928 10.552C15.616 11.16 16.16 11.928 16.56 12.856C16.96 13.784 17.16 14.912 17.16 16.24V25H14.376V16.264C14.376 15.064 14.168 14.096 13.752 13.36C13.336 12.608 12.784 12.04 12.096 11.656C11.408 11.272 10.656 11.008 9.84 10.864C9.04 10.72 8.248 10.648 7.464 10.648V25H4.68Z" fill="black"/>
<path d="M5.91077 25V8.2H8.52677C9.40677 8.2 10.3028 8.272 11.2148 8.416C12.1428 8.544 13.0308 8.784 13.8788 9.136C14.7268 9.472 15.4868 9.944 16.1588 10.552C16.8468 11.16 17.3908 11.928 17.7908 12.856C18.1908 13.784 18.3908 14.912 18.3908 16.24V25H15.6068V16.264C15.6068 15.064 15.3988 14.096 14.9828 13.36C14.5668 12.608 14.0148 12.04 13.3268 11.656C12.6388 11.272 11.8868 11.008 11.0708 10.864C10.2708 10.72 9.47877 10.648 8.69477 10.648V25H5.91077Z" fill="black"/>
<path d="M4.68 25.8458V9.04581H7.296C8.176 9.04581 9.072 9.11781 9.984 9.26181C10.912 9.38981 11.8 9.62981 12.648 9.98181C13.496 10.3178 14.256 10.7898 14.928 11.3978C15.616 12.0058 16.16 12.7738 16.56 13.7018C16.96 14.6298 17.16 15.7578 17.16 17.0858V25.8458H14.376V17.1098C14.376 15.9098 14.168 14.9418 13.752 14.2058C13.336 13.4538 12.784 12.8858 12.096 12.5018C11.408 12.1178 10.656 11.8538 9.84 11.7098C9.04 11.5658 8.248 11.4938 7.464 11.4938V25.8458H4.68Z" fill="black"/>
<path d="M5.91077 25.8458V9.04581H8.52677C9.40677 9.04581 10.3028 9.11781 11.2148 9.26181C12.1428 9.38981 13.0308 9.62981 13.8788 9.98181C14.7268 10.3178 15.4868 10.7898 16.1588 11.3978C16.8468 12.0058 17.3908 12.7738 17.7908 13.7018C18.1908 14.6298 18.3908 15.7578 18.3908 17.0858V25.8458H15.6068V17.1098C15.6068 15.9098 15.3988 14.9418 14.9828 14.2058C14.5668 13.4538 14.0148 12.8858 13.3268 12.5018C12.6388 12.1178 11.8868 11.8538 11.0708 11.7098C10.2708 11.5658 9.47877 11.4938 8.69477 11.4938V25.8458H5.91077Z" fill="black"/>
<rect x="13" y="16" width="6" height="10" fill="#FED731"/>
<rect x="14" y="12" width="6" height="10" fill="#FED731"/>
<path d="M24.908 26C23.9187 26 22.8827 25.9253 21.8 25.776C20.736 25.608 19.7 25.328 18.692 24.936C17.7027 24.5253 16.8067 23.9653 16.004 23.256C15.2013 22.5467 14.5667 21.6507 14.1 20.568C13.6333 19.4853 13.4 18.1693 13.4 16.62V6.4H26.616V9.48H16.648V16.592C16.648 18.0107 16.9 19.1493 17.404 20.008C17.9267 20.8667 18.5987 21.5107 19.42 21.94C20.2413 22.3693 21.128 22.6587 22.08 22.808C23.0507 22.9387 23.9933 23.004 24.908 23.004H26.588V26H24.908Z" fill="black"/>
<path d="M24.908 27.0196C23.9187 27.0196 22.8827 26.9449 21.8 26.7956C20.736 26.6276 19.7 26.3476 18.692 25.9556C17.7027 25.5449 16.8067 24.9849 16.004 24.2756C15.2013 23.5663 14.5667 22.6703 14.1 21.5876C13.6333 20.5049 13.4 19.1889 13.4 17.6396V7.41961H26.616V10.4996H16.648V17.6116C16.648 19.0303 16.9 20.1689 17.404 21.0276C17.9267 21.8863 18.5987 22.5303 19.42 22.9596C20.2413 23.3889 21.128 23.6783 22.08 23.8276C23.0507 23.9583 23.9933 24.0236 24.908 24.0236H26.588V27.0196H24.908Z" fill="black"/>
<path d="M25.908 26C24.9187 26 23.8827 25.9253 22.8 25.776C21.736 25.608 20.7 25.328 19.692 24.936C18.7027 24.5253 17.8067 23.9653 17.004 23.256C16.2013 22.5467 15.5667 21.6507 15.1 20.568C14.6333 19.4853 14.4 18.1693 14.4 16.62V6.4H27.616V9.48H17.648V16.592C17.648 18.0107 17.9 19.1493 18.404 20.008C18.9267 20.8667 19.5987 21.5107 20.42 21.94C21.2413 22.3693 22.128 22.6587 23.08 22.808C24.0507 22.9387 24.9933 23.004 25.908 23.004H27.588V26H25.908Z" fill="black"/>
<path d="M25.908 27.0196C24.9187 27.0196 23.8827 26.9449 22.8 26.7956C21.736 26.6276 20.7 26.3476 19.692 25.9556C18.7027 25.5449 17.8067 24.9849 17.004 24.2756C16.2013 23.5663 15.5667 22.6703 15.1 21.5876C14.6333 20.5049 14.4 19.1889 14.4 17.6396V7.41961H27.616V10.4996H17.648V17.6116C17.648 19.0303 17.9 20.1689 18.404 21.0276C18.9267 21.8863 19.5987 22.5303 20.42 22.9596C21.2413 23.3889 22.128 23.6783 23.08 23.8276C24.0507 23.9583 24.9933 24.0236 25.908 24.0236H27.588V27.0196H25.908Z" fill="black"/>
<path d="M13.1034 8L19 15.1739V19L10 8L11.5517 8L13.1034 8Z" fill="#FED731"/>
</g>
<defs>
<clipPath id="clip0_148_121">
<rect width="32" height="32" rx="6" fill="white"/>
</clipPath>
</defs>
</svg>
