<svg width="109" height="109" viewBox="0 0 109 109" fill="none" xmlns="http://www.w3.org/2000/svg">
<rect width="109" height="109" rx="3" fill="#FED731"/>
<path d="M27.48 78V33.2H34.456C36.8027 33.2 39.192 33.392 41.624 33.776C44.0987 34.1173 46.4667 34.7573 48.728 35.696C50.9893 36.592 53.016 37.8507 54.808 39.472C56.6427 41.0933 58.0933 43.1413 59.16 45.616C60.2267 48.0907 60.76 51.0987 60.76 54.64V78H53.336V54.704C53.336 51.504 52.7813 48.9227 51.672 46.96C50.5627 44.9547 49.0907 43.44 47.256 42.416C45.4213 41.392 43.416 40.688 41.24 40.304C39.1067 39.92 36.9947 39.728 34.904 39.728V78H27.48Z" fill="black"/>
<path d="M22.48 78V33.2H29.456C31.8027 33.2 34.192 33.392 36.624 33.776C39.0987 34.1173 41.4667 34.7573 43.728 35.696C45.9893 36.592 48.016 37.8507 49.808 39.472C51.6427 41.0933 53.0933 43.1413 54.16 45.616C55.2267 48.0907 55.76 51.0987 55.76 54.64V78H48.336V54.704C48.336 51.504 47.7813 48.9227 46.672 46.96C45.5627 44.9547 44.0907 43.44 42.256 42.416C40.4213 41.392 38.416 40.688 36.24 40.304C34.1067 39.92 31.9947 39.728 29.904 39.728V78H22.48Z" fill="black"/>
<path d="M27.48 83V38.2H34.456C36.8027 38.2 39.192 38.392 41.624 38.776C44.0987 39.1173 46.4667 39.7573 48.728 40.696C50.9893 41.592 53.016 42.8507 54.808 44.472C56.6427 46.0933 58.0933 48.1413 59.16 50.616C60.2267 53.0907 60.76 56.0987 60.76 59.64V83H53.336V59.704C53.336 56.504 52.7813 53.9227 51.672 51.96C50.5627 49.9547 49.0907 48.44 47.256 47.416C45.4213 46.392 43.416 45.688 41.24 45.304C39.1067 44.92 36.9947 44.728 34.904 44.728V83H27.48Z" fill="black"/>
<path d="M22.48 83V38.2H29.456C31.8027 38.2 34.192 38.392 36.624 38.776C39.0987 39.1173 41.4667 39.7573 43.728 40.696C45.9893 41.592 48.016 42.8507 49.808 44.472C51.6427 46.0933 53.0933 48.1413 54.16 50.616C55.2267 53.0907 55.76 56.0987 55.76 59.64V83H48.336V59.704C48.336 56.504 47.7813 53.9227 46.672 51.96C45.5627 49.9547 44.0907 48.44 42.256 47.416C40.4213 46.392 38.416 45.688 36.24 45.304C34.1067 44.92 31.9947 44.728 29.904 44.728V83H22.48Z" fill="black"/>
<rect x="48" y="58" width="13" height="25" fill="#FED731"/>
<path d="M83.646 88C80.6073 88 77.4253 87.7707 74.1 87.312C70.832 86.796 67.65 85.936 64.554 84.732C61.5153 83.4707 58.7633 81.7507 56.298 79.572C53.8327 77.3933 51.8833 74.6413 50.45 71.316C49.0167 67.9907 48.3 63.9487 48.3 59.19V27.8H88.892V37.26H58.276V59.104C58.276 63.4613 59.05 66.9587 60.598 69.596C62.2033 72.2333 64.2673 74.2113 66.79 75.53C69.3127 76.8487 72.036 77.7373 74.96 78.196C77.9413 78.5973 80.8367 78.798 83.646 78.798H88.806V88H83.646Z" fill="black"/>
<path d="M83.646 92.3141C80.6073 92.3141 77.4253 92.0848 74.1 91.6261C70.832 91.1101 67.65 90.2501 64.554 89.0461C61.5153 87.7848 58.7633 86.0648 56.298 83.8861C53.8327 81.7075 51.8833 78.9555 50.45 75.6301C49.0167 72.3048 48.3 68.2628 48.3 63.5041V32.1141H88.892V41.5741H58.276V63.4181C58.276 67.7755 59.05 71.2728 60.598 73.9101C62.2033 76.5475 64.2673 78.5255 66.79 79.8441C69.3127 81.1628 72.036 82.0515 74.96 82.5101C77.9413 82.9115 80.8367 83.1121 83.646 83.1121H88.806V92.3141H83.646Z" fill="black"/>
<path d="M86.206 88C83.1673 88 79.9853 87.7707 76.66 87.312C73.392 86.796 70.21 85.936 67.114 84.732C64.0753 83.4707 61.3233 81.7507 58.858 79.572C56.3927 77.3933 54.4433 74.6413 53.01 71.316C51.5767 67.9907 50.86 63.9487 50.86 59.19V27.8H91.452V37.26H60.836V59.104C60.836 63.4613 61.61 66.9587 63.158 69.596C64.7633 72.2333 66.8273 74.2113 69.35 75.53C71.8727 76.8487 74.596 77.7373 77.52 78.196C80.5013 78.5973 83.3967 78.798 86.206 78.798H91.366V88H86.206Z" fill="black"/>
<path d="M86.206 92.3141C83.1673 92.3141 79.9853 92.0848 76.66 91.6261C73.392 91.1101 70.21 90.2501 67.114 89.0461C64.0753 87.7848 61.3233 86.0648 58.858 83.8861C56.3927 81.7075 54.4433 78.9555 53.01 75.6301C51.5767 72.3048 50.86 68.2628 50.86 63.5041V32.1141H91.452V41.5741H60.836V63.4181C60.836 67.7755 61.61 71.2728 63.158 73.9101C64.7633 76.5475 66.8273 78.5255 69.35 79.8441C71.8727 81.1628 74.596 82.0515 77.52 82.5101C80.5013 82.9115 83.3967 83.1121 86.206 83.1121H91.366V92.3141H86.206Z" fill="black"/>
<path d="M46.5862 31L61 51.8696V63L39 31L42.7931 31L46.5862 31Z" fill="#FED731"/>
</svg>
