<svg width="104" height="42" viewBox="0 0 104 42" fill="none" xmlns="http://www.w3.org/2000/svg">
<path d="M55.8168 20.4929C55.7372 19.6908 55.3958 19.0677 54.7926 18.6236C54.1894 18.1794 53.3707 17.9574 52.3366 17.9574C51.634 17.9574 51.0407 18.0568 50.5568 18.2557C50.0729 18.4479 49.7017 18.7164 49.4432 19.0611C49.1913 19.4058 49.0653 19.7969 49.0653 20.2344C49.0521 20.599 49.1283 20.9171 49.294 21.1889C49.4664 21.4607 49.7017 21.696 50 21.8949C50.2983 22.0871 50.643 22.2562 51.0341 22.402C51.4252 22.5412 51.8428 22.6605 52.2869 22.7599L54.1165 23.1974C55.0047 23.3963 55.8201 23.6615 56.5625 23.9929C57.3049 24.3243 57.9479 24.732 58.4915 25.2159C59.035 25.6998 59.456 26.2699 59.7543 26.9261C60.0592 27.5824 60.215 28.3348 60.2216 29.1832C60.215 30.4295 59.8968 31.5099 59.267 32.4247C58.6439 33.3329 57.7424 34.0388 56.5625 34.5426C55.3892 35.0398 53.974 35.2884 52.3168 35.2884C50.6728 35.2884 49.241 35.0365 48.0213 34.5327C46.8082 34.0289 45.8603 33.2831 45.1776 32.2955C44.5014 31.3011 44.1468 30.0715 44.1136 28.6065H48.2798C48.3262 29.2893 48.5218 29.8594 48.8665 30.3168C49.2178 30.7675 49.6851 31.1089 50.2685 31.3409C50.8584 31.5663 51.5246 31.679 52.267 31.679C52.9962 31.679 53.6293 31.5729 54.1662 31.3608C54.7098 31.1487 55.1307 30.8537 55.429 30.4759C55.7273 30.098 55.8764 29.6638 55.8764 29.1733C55.8764 28.7159 55.7405 28.3314 55.4688 28.0199C55.2036 27.7083 54.8125 27.4432 54.2955 27.2244C53.785 27.0057 53.1586 26.8068 52.4162 26.6278L50.1989 26.071C48.482 25.6534 47.1264 25.0005 46.1321 24.1122C45.1378 23.224 44.6439 22.0275 44.6506 20.5227C44.6439 19.2898 44.9721 18.2126 45.6349 17.2912C46.3045 16.3698 47.2225 15.6506 48.3892 15.1335C49.5559 14.6165 50.8816 14.358 52.3665 14.358C53.8778 14.358 55.197 14.6165 56.3239 15.1335C57.4574 15.6506 58.339 16.3698 58.9688 17.2912C59.5985 18.2126 59.9233 19.2798 59.9432 20.4929H55.8168ZM80.1502 14.6364V35H76.4315L67.5721 22.1832H67.4229V35H63.1175V14.6364H66.896L75.6857 27.4432H75.8647V14.6364H80.1502ZM101.675 21.7656H97.3196C97.2401 21.2022 97.0777 20.7017 96.8324 20.2642C96.5871 19.8201 96.2723 19.4422 95.8878 19.1307C95.5033 18.8191 95.0592 18.5805 94.5554 18.4148C94.0582 18.2491 93.518 18.1662 92.9347 18.1662C91.8807 18.1662 90.9626 18.428 90.1804 18.9517C89.3982 19.4687 88.7917 20.2244 88.3608 21.2188C87.9299 22.2064 87.7145 23.4062 87.7145 24.8182C87.7145 26.2699 87.9299 27.4896 88.3608 28.4773C88.7983 29.465 89.4081 30.2107 90.1903 30.7145C90.9725 31.2183 91.8774 31.4702 92.9048 31.4702C93.4815 31.4702 94.0152 31.3939 94.5057 31.2415C95.0028 31.089 95.4437 30.867 95.8281 30.5753C96.2126 30.277 96.5308 29.9157 96.7827 29.4915C97.0412 29.0672 97.2202 28.5833 97.3196 28.0398L101.675 28.0597C101.562 28.9943 101.28 29.8958 100.83 30.7642C100.385 31.6259 99.7855 32.3982 99.0298 33.081C98.2808 33.7571 97.3859 34.294 96.3452 34.6918C95.3111 35.0829 94.1411 35.2784 92.8352 35.2784C91.0189 35.2784 89.3949 34.8674 87.9631 34.0455C86.5379 33.2235 85.411 32.0336 84.5824 30.4759C83.7604 28.9181 83.3494 27.0322 83.3494 24.8182C83.3494 22.5975 83.767 20.7083 84.6023 19.1506C85.4375 17.5928 86.571 16.4062 88.0028 15.5909C89.4347 14.7689 91.0455 14.358 92.8352 14.358C94.0152 14.358 95.1089 14.5237 96.1165 14.8551C97.1307 15.1866 98.0289 15.6705 98.8111 16.3068C99.5933 16.9366 100.23 17.7088 100.72 18.6236C101.217 19.5384 101.536 20.5857 101.675 21.7656Z" fill="black"/>
<path d="M3.24 36V13.6H6.728C7.90133 13.6 9.096 13.696 10.312 13.888C11.5493 14.0587 12.7333 14.3787 13.864 14.848C14.9947 15.296 16.008 15.9253 16.904 16.736C17.8213 17.5467 18.5467 18.5707 19.08 19.808C19.6133 21.0453 19.88 22.5493 19.88 24.32V36H16.168V24.352C16.168 22.752 15.8907 21.4613 15.336 20.48C14.7813 19.4773 14.0453 18.72 13.128 18.208C12.2107 17.696 11.208 17.344 10.12 17.152C9.05333 16.96 7.99733 16.864 6.952 16.864V36H3.24Z" fill="#FED731"/>
<path d="M6.24 36V13.6H9.728C10.9013 13.6 12.096 13.696 13.312 13.888C14.5493 14.0587 15.7333 14.3787 16.864 14.848C17.9947 15.296 19.008 15.9253 19.904 16.736C20.8213 17.5467 21.5467 18.5707 22.08 19.808C22.6133 21.0453 22.88 22.5493 22.88 24.32V36H19.168V24.352C19.168 22.752 18.8907 21.4613 18.336 20.48C17.7813 19.4773 17.0453 18.72 16.128 18.208C15.2107 17.696 14.208 17.344 13.12 17.152C12.0533 16.96 10.9973 16.864 9.952 16.864V36H6.24Z" fill="#FED731"/>
<path d="M2.24 35V12.6H5.728C6.90133 12.6 8.096 12.696 9.312 12.888C10.5493 13.0587 11.7333 13.3787 12.864 13.848C13.9947 14.296 15.008 14.9253 15.904 15.736C16.8213 16.5467 17.5467 17.5707 18.08 18.808C18.6133 20.0453 18.88 21.5493 18.88 23.32V35H15.168V23.352C15.168 21.752 14.8907 20.4613 14.336 19.48C13.7813 18.4773 13.0453 17.72 12.128 17.208C11.2107 16.696 10.208 16.344 9.12 16.152C8.05333 15.96 6.99733 15.864 5.952 15.864V35H2.24Z" fill="#FED731"/>
<path d="M5.24 35V12.6H8.728C9.90133 12.6 11.096 12.696 12.312 12.888C13.5493 13.0587 14.7333 13.3787 15.864 13.848C16.9947 14.296 18.008 14.9253 18.904 15.736C19.8213 16.5467 20.5467 17.5707 21.08 18.808C21.6133 20.0453 21.88 21.5493 21.88 23.32V35H18.168V23.352C18.168 21.752 17.8907 20.4613 17.336 19.48C16.7813 18.4773 16.0453 17.72 15.128 17.208C14.2107 16.696 13.208 16.344 12.12 16.152C11.0533 15.96 9.99733 15.864 8.952 15.864V35H5.24Z" fill="#FED731"/>
<path d="M2.24 39V16.6H5.728C6.90133 16.6 8.096 16.696 9.312 16.888C10.5493 17.0587 11.7333 17.3787 12.864 17.848C13.9947 18.296 15.008 18.9253 15.904 19.736C16.8213 20.5467 17.5467 21.5707 18.08 22.808C18.6133 24.0453 18.88 25.5493 18.88 27.32V39H15.168V27.352C15.168 25.752 14.8907 24.4613 14.336 23.48C13.7813 22.4773 13.0453 21.72 12.128 21.208C11.2107 20.696 10.208 20.344 9.12 20.152C8.05333 19.96 6.99733 19.864 5.952 19.864V39H2.24Z" fill="#FED731"/>
<path d="M5.24 39V16.6H8.728C9.90133 16.6 11.096 16.696 12.312 16.888C13.5493 17.0587 14.7333 17.3787 15.864 17.848C16.9947 18.296 18.008 18.9253 18.904 19.736C19.8213 20.5467 20.5467 21.5707 21.08 22.808C21.6133 24.0453 21.88 25.5493 21.88 27.32V39H18.168V27.352C18.168 25.752 17.8907 24.4613 17.336 23.48C16.7813 22.4773 16.0453 21.72 15.128 21.208C14.2107 20.696 13.208 20.344 12.12 20.152C11.0533 19.96 9.99733 19.864 8.952 19.864V39H5.24Z" fill="#FED731"/>
<path d="M3.24 39V16.6H6.728C7.90133 16.6 9.096 16.696 10.312 16.888C11.5493 17.0587 12.7333 17.3787 13.864 17.848C14.9947 18.296 16.008 18.9253 16.904 19.736C17.8213 20.5467 18.5467 21.5707 19.08 22.808C19.6133 24.0453 19.88 25.5493 19.88 27.32V39H16.168V27.352C16.168 25.752 15.8907 24.4613 15.336 23.48C14.7813 22.4773 14.0453 21.72 13.128 21.208C12.2107 20.696 11.208 20.344 10.12 20.152C9.05333 19.96 7.99733 19.864 6.952 19.864V39H3.24Z" fill="#FED731"/>
<path d="M6.24 39V16.6H9.728C10.9013 16.6 12.096 16.696 13.312 16.888C14.5493 17.0587 15.7333 17.3787 16.864 17.848C17.9947 18.296 19.008 18.9253 19.904 19.736C20.8213 20.5467 21.5467 21.5707 22.08 22.808C22.6133 24.0453 22.88 25.5493 22.88 27.32V39H19.168V27.352C19.168 25.752 18.8907 24.4613 18.336 23.48C17.7813 22.4773 17.0453 21.72 16.128 21.208C15.2107 20.696 14.208 20.344 13.12 20.152C12.0533 19.96 10.9973 19.864 9.952 19.864V39H6.24Z" fill="#FED731"/>
<rect x="21" y="19" width="8" height="15" fill="white"/>
<rect x="14" y="25" width="10" height="15" fill="white"/>
<path d="M29.596 36C28.324 36 26.992 35.904 25.6 35.712C24.232 35.496 22.9 35.136 21.604 34.632C20.332 34.104 19.18 33.384 18.148 32.472C17.116 31.56 16.3 30.408 15.7 29.016C15.1 27.624 14.8 25.932 14.8 23.94V10.8H31.792V14.76H18.976V23.904C18.976 25.728 19.3 27.192 19.948 28.296C20.62 29.4 21.484 30.228 22.54 30.78C23.596 31.332 24.736 31.704 25.96 31.896C27.208 32.064 28.42 32.148 29.596 32.148H31.756V36H29.596Z" fill="#FED731"/>
<path d="M31.596 36C30.324 36 28.992 35.904 27.6 35.712C26.232 35.496 24.9 35.136 23.604 34.632C22.332 34.104 21.18 33.384 20.148 32.472C19.116 31.56 18.3 30.408 17.7 29.016C17.1 27.624 16.8 25.932 16.8 23.94V10.8H33.792V14.76H20.976V23.904C20.976 25.728 21.3 27.192 21.948 28.296C22.62 29.4 23.484 30.228 24.54 30.78C25.596 31.332 26.736 31.704 27.96 31.896C29.208 32.064 30.42 32.148 31.596 32.148H33.756V36H31.596Z" fill="#FED731"/>
<path d="M29.596 39.1C28.324 39.1 26.992 39.004 25.6 38.812C24.232 38.596 22.9 38.236 21.604 37.732C20.332 37.204 19.18 36.484 18.148 35.572C17.116 34.66 16.3 33.508 15.7 32.116C15.1 30.724 14.8 29.032 14.8 27.04V13.9H31.792V17.86H18.976V27.004C18.976 28.828 19.3 30.292 19.948 31.396C20.62 32.5 21.484 33.328 22.54 33.88C23.596 34.432 24.736 34.804 25.96 34.996C27.208 35.164 28.42 35.248 29.596 35.248H31.756V39.1H29.596Z" fill="#FED731"/>
<path d="M31.596 39.1C30.324 39.1 28.992 39.004 27.6 38.812C26.232 38.596 24.9 38.236 23.604 37.732C22.332 37.204 21.18 36.484 20.148 35.572C19.116 34.66 18.3 33.508 17.7 32.116C17.1 30.724 16.8 29.032 16.8 27.04V13.9H33.792V17.86H20.976V27.004C20.976 28.828 21.3 30.292 21.948 31.396C22.62 32.5 23.484 33.328 24.54 33.88C25.596 34.432 26.736 34.804 27.96 34.996C29.208 35.164 30.42 35.248 31.596 35.248H33.756V39.1H31.596Z" fill="#FED731"/>
<path d="M30.596 36C29.324 36 27.992 35.904 26.6 35.712C25.232 35.496 23.9 35.136 22.604 34.632C21.332 34.104 20.18 33.384 19.148 32.472C18.116 31.56 17.3 30.408 16.7 29.016C16.1 27.624 15.8 25.932 15.8 23.94V10.8H32.792V14.76H19.976V23.904C19.976 25.728 20.3 27.192 20.948 28.296C21.62 29.4 22.484 30.228 23.54 30.78C24.596 31.332 25.736 31.704 26.96 31.896C28.208 32.064 29.42 32.148 30.596 32.148H32.756V36H30.596Z" fill="#FED731"/>
<path d="M32.596 36C31.324 36 29.992 35.904 28.6 35.712C27.232 35.496 25.9 35.136 24.604 34.632C23.332 34.104 22.18 33.384 21.148 32.472C20.116 31.56 19.3 30.408 18.7 29.016C18.1 27.624 17.8 25.932 17.8 23.94V10.8H34.792V14.76H21.976V23.904C21.976 25.728 22.3 27.192 22.948 28.296C23.62 29.4 24.484 30.228 25.54 30.78C26.596 31.332 27.736 31.704 28.96 31.896C30.208 32.064 31.42 32.148 32.596 32.148H34.756V36H32.596Z" fill="#FED731"/>
<path d="M30.596 39.1C29.324 39.1 27.992 39.004 26.6 38.812C25.232 38.596 23.9 38.236 22.604 37.732C21.332 37.204 20.18 36.484 19.148 35.572C18.116 34.66 17.3 33.508 16.7 32.116C16.1 30.724 15.8 29.032 15.8 27.04V13.9H32.792V17.86H19.976V27.004C19.976 28.828 20.3 30.292 20.948 31.396C21.62 32.5 22.484 33.328 23.54 33.88C24.596 34.432 25.736 34.804 26.96 34.996C28.208 35.164 29.42 35.248 30.596 35.248H32.756V39.1H30.596Z" fill="#FED731"/>
<path d="M32.596 39.1C31.324 39.1 29.992 39.004 28.6 38.812C27.232 38.596 25.9 38.236 24.604 37.732C23.332 37.204 22.18 36.484 21.148 35.572C20.116 34.66 19.3 33.508 18.7 32.116C18.1 30.724 17.8 29.032 17.8 27.04V13.9H34.792V17.86H21.976V27.004C21.976 28.828 22.3 30.292 22.948 31.396C23.62 32.5 24.484 33.328 25.54 33.88C26.596 34.432 27.736 34.804 28.96 34.996C30.208 35.164 31.42 35.248 32.596 35.248H34.756V39.1H32.596Z" fill="#FED731"/>
<path d="M14.4828 12.3L23 22.0826V27.3L10 12.3L12.2414 12.3L14.4828 12.3Z" fill="white"/>
</svg>
